<?xml version="1.0" encoding="iso-8859-1"?>
<!-- Generator: Adobe Illustrator 18.0.0, SVG Export Plug-In . SVG Version: 6.00 Build 0)  -->
<!DOCTYPE svg PUBLIC "-//W3C//DTD SVG 1.1//EN" "http://www.w3.org/Graphics/SVG/1.1/DTD/svg11.dtd">
<svg version="1.1" id="Capa_1" xmlns="http://www.w3.org/2000/svg" xmlns:xlink="http://www.w3.org/1999/xlink" x="0px" y="0px"
	 viewBox="0 0 50 158.74" style="enable-background:new 0 0 50 158.74;" xml:space="preserve">
<g>
	<path id="Facebook" style="fill:#FFFFFF;" d="M23.303,88.949c0,0.323,0,1.763,0,1.763h-1.292v2.156h1.292v6.408h2.654v-6.408h1.781
		c0,0,0.167-1.034,0.248-2.165c-0.231,0-2.019,0-2.019,0s0-1.254,0-1.475c0-0.22,0.289-0.517,0.576-0.517c0.285,0,0.888,0,1.446,0
		c0-0.294,0-1.308,0-2.245c-0.745,0-1.593,0-1.966,0C23.238,86.469,23.303,88.627,23.303,88.949z"/>
</g>
</svg>
