<?xml version="1.0" encoding="utf-8"?>
<!-- Generator: Adobe Illustrator 18.1.1, SVG Export Plug-In . SVG Version: 6.00 Build 0)  -->
<svg version="1.1" id="Слой_1" xmlns="http://www.w3.org/2000/svg" xmlns:xlink="http://www.w3.org/1999/xlink" x="0px" y="0px"
	 viewBox="152.6 293.3 449.5 178.1" enable-background="new 152.6 293.3 449.5 178.1" xml:space="preserve">
<rect x="0" y="179.6" display="none" width="612" height="432.8"/>
<g>
	<g>
		<path fill="#78B4E5" d="M152.6,345.9c33.9-17.6,67.9-35,101.9-52.6c0,5.1,0,10.3,0,15.4c-26.6,13.2-53,26.6-79.6,39.9
			c-2.1,1.1-4.3,2.1-6.3,3.3c28.7,14.2,57.2,28.7,85.9,42.8c0,5.2,0,10.3,0,15.5c-33.9-17.5-67.9-34.9-101.8-52.4
			C152.6,353.9,152.6,349.9,152.6,345.9z"/>
		<path fill="#78B4E5" d="M500.1,354.5c34,17.4,68,34.8,102,52.1c0,4.2,0,8.4,0,12.6c-34,17.4-68,34.8-102.1,52.2
			c0-5.1,0-10.2,0-15.3c28.9-14.3,57.8-28.7,86.7-43c-28.8-14.5-57.8-28.8-86.7-43.1C500.1,364.8,500.1,359.6,500.1,354.5z"/>
	</g>
	<g>
		<path fill="#FFFFFF" d="M316.2,324.6c4.3-0.3,8.6-0.2,12.9,0c0,16.6,0,33.1,0,49.7c0.2,7.1,1,14.8,5.6,20.6
			c7.2,9.3,23.7,8.4,30-1.6c4.7-7.3,4.5-16.3,4.6-24.6c0-14.7,0-29.4,0-44.1c3.6,0,7.2,0,10.8,0c0,17.6,0,35.3,0,52.9
			c-0.3,8.8-2.7,18.1-9.1,24.5c-5.5,5.7-13.5,8.1-21.3,8.3c-7,0.2-14.4-1.2-20-5.5c-3.1-2.3-5.4-5.5-7.3-8.8
			c-3.2,6.3-9.2,10.9-16,12.8c-8.1,2.3-16.9,2.1-24.7-1.1c-7.2-3.1-12.3-9.8-14.4-17.2c-1.1-4.2-2.4-8.5-2.3-12.9
			c0-17.7,0-35.3,0-53c3.7,0,7.4,0,11.1,0c0.1,15.8,0,31.5,0,47.3c0.3,7.6,0.5,15.9,5.2,22.4c7,10,24.4,9.2,30.6-1.3
			c4.8-7.7,4.4-17.2,4.4-25.9C316.2,352.8,316.2,338.7,316.2,324.6z"/>
		<g>
			<path fill="#FFFFFF" d="M438.8,325.7c8.7-1.7,17.7-2.3,26.6-1.4c6,0.5,12.1,2.4,16.5,6.8c4.9,4.4,6.2,11.6,4.8,17.8
				c-1.7,6.4-7.1,11.3-13.2,13.3c6.9,1.7,13.2,6.4,15.6,13.2c2.4,7.1,1.2,15.6-3.6,21.4c-4.3,5.4-11,7.8-17.6,8.9
				c-9.6,1.4-19.3,1-28.9-0.1C438.8,379,438.9,352.4,438.8,325.7z M449.6,332.9c0,8.7,0,17.3,0,26c7.3-0.2,15.6,1.2,21.9-3.6
				c6.6-4.5,6.9-16-0.2-20.2C464.8,331.3,456.8,332,449.6,332.9z M449.6,367c0,10.3,0,20.6,0,30.9c7.7,0.7,16.3,1.2,23.1-3.1
				c8.3-5,8.4-18.9,0.2-24.1C466,366.1,457.4,367,449.6,367z"/>
		</g>
		<path fill="#FFFFFF" d="M387.1,324.5c14.7,0,29.4,0,44,0c0,3,0,5.9,0,8.9c-11.1,0-22.2,0-33.3,0c0,24.1,0,48.2,0,72.4
			c-3.6,0-7.1,0-10.7,0C387.1,378.7,387.1,351.6,387.1,324.5z"/>
		<path fill="#FFFFFF" d="M401.5,358.9c9.3,0,18.6,0,27.9,0c0,3,0,5.9,0,8.9c-9.3,0-18.6,0-27.9,0
			C401.5,364.8,401.5,361.9,401.5,358.9z"/>
		<path fill="#FFFFFF" d="M401.5,396.9c10.5,0,21,0,31.5,0c0,3,0,5.9,0,8.9c-10.5,0-21,0-31.5,0
			C401.5,402.8,401.5,399.9,401.5,396.9z"/>
		<path fill="#FFFFFF" d="M270.2,424.8c5.1-6,14-6.9,21.1-4.4c-0.4,1.2-0.7,2.4-1,3.6c-5.4-2.2-12.5-1.9-16.5,2.8
			c-4,5.1-4.1,12.9-0.5,18.3c3.9,5.3,11.5,5.4,17.1,3.3c0.3,1.2,0.5,2.4,0.8,3.5c-6.1,1.9-13.4,2.3-18.8-1.7
			C264.8,444.4,264.4,432,270.2,424.8z"/>
		<path fill="#FFFFFF" d="M293.3,419.7c1.4,0,2.8,0,4.2,0c0,4.6,0,9.2,0,13.7c5.4,0,10.8,0,16.2,0c0-4.6,0-9.2,0-13.7
			c1.4,0,2.8,0,4.2,0c0,11,0,22,0,32.9c-1.4,0-2.8,0-4.2,0c0-5.2,0-10.4,0-15.6c-5.4,0-10.8,0-16.2,0c0,5.2,0,10.4,0,15.6
			c-1.4,0-2.8,0-4.2,0C293.3,441.7,293.3,430.7,293.3,419.7z"/>
		<g>
			<path fill="#FFFFFF" d="M331.1,419.7c1.7,0,3.4,0,5.1,0c3.7,11,7.6,22,11.3,33c-1.5,0-3.1,0-4.6-0.1c-1.1-3.5-2.4-7-3.5-10.5
				c-4,0-7.9-0.1-11.8,0.1c-0.9,3.5-2.2,6.9-3.3,10.4c-1.5,0-2.9,0-4.4,0C323.6,441.7,327.3,430.7,331.1,419.7z M333.5,423.5
				c-1.4,5.2-3.2,10.4-5,15.5c3.3,0,6.7,0,10,0C336.8,433.8,334.9,428.7,333.5,423.5z"/>
		</g>
		<path fill="#FFFFFF" d="M349.3,419.7c1.4,0,2.8,0,4.2,0c0,9.8,0,19.5,0,29.3c4.7,0,9.4,0,14.2,0c0,1.2,0,2.4,0,3.6
			c-6.1,0-12.3,0-18.4,0C349.3,441.7,349.3,430.7,349.3,419.7z"/>
		<path fill="#FFFFFF" d="M369.3,419.7c1.4,0,2.8,0,4.2,0c0,9.8,0,19.6,0,29.3c4.7,0,9.4,0,14.1,0c0,1.2,0,2.4,0,3.6
			c-6.1,0-12.3,0-18.4,0C369.3,441.7,369.3,430.7,369.3,419.7z"/>
		<path fill="#FFFFFF" d="M389.5,419.7c5.9,0,11.9,0,17.8,0c0,0.9,0,2.7,0,3.6c-4.5,0-9,0-13.5,0c0,3.4,0,6.9,0,10.3
			c4.2,0,8.5,0,12.7,0c0,0.9,0,2.6,0,3.4c-4.2,0-8.5,0-12.7,0c0,4,0,7.9,0,11.9c4.8,0,9.6,0,14.4,0c0,1.2,0,2.4,0,3.6
			c-6.2,0-12.4,0-18.6,0C389.5,441.7,389.5,430.7,389.5,419.7z"/>
		<path fill="#FFFFFF" d="M410.6,419.7c1.6,0,3.2,0,4.9,0.1c5.4,9.2,11.9,17.7,16.4,27.4c-0.6-9.2-0.4-18.3-0.4-27.5
			c1.3,0,2.7,0,4.1,0c0,11,0,22,0,32.9c-1.5,0-2.9,0-4.3,0c-5.6-9.2-11.9-18-16.7-27.7c0.3,9.2,0.2,18.4,0.2,27.7c-1.4,0-2.7,0-4,0
			C410.6,441.7,410.6,430.7,410.6,419.7z"/>
		<path fill="#FFFFFF" d="M445.8,421.8c5.5-3.1,12.3-3,18.2-1.1c-0.4,1.2-0.7,2.4-1.1,3.6c-4.9-1.9-10.8-2-15.3,0.8
			c-6.2,4.3-6.7,13.9-2.7,19.8c3.5,4.9,10.5,5.6,15.9,3.9c0-3.4,0-6.7,0-10.1c-2.2,0-4.4,0-6.7,0c0-1.1,0-2.3,0-3.4
			c3.6,0,7.3,0,10.9,0c0,5.4,0,10.7,0,16c-6,1.8-12.7,2.6-18.5,0.1C435.1,446.3,435,427.6,445.8,421.8z"/>
		<path fill="#FFFFFF" d="M468.4,419.7c5.9,0,11.9,0,17.8,0c0,1.2,0,2.4,0,3.6c-4.5,0-9,0-13.5,0c0,3.4,0,6.9,0,10.3
			c4.2,0,8.5,0,12.7,0c0,1.1,0,2.3,0,3.4c-4.2,0-8.5,0-12.7,0c0,4,0,7.9,0,11.9c4.8,0,9.6,0,14.4,0c0,1.2,0,2.4,0,3.6
			c-6.2,0-12.4,0-18.6,0C468.4,441.7,468.4,430.7,468.4,419.7z"/>
	</g>
</g>
<line display="none" fill="none" x1="490.2" y1="306.4" x2="490.2" y2="308.6"/>
</svg>
