<?xml version="1.0" encoding="iso-8859-1"?>
<!-- Generator: Adobe Illustrator 18.0.0, SVG Export Plug-In . SVG Version: 6.00 Build 0)  -->
<!DOCTYPE svg PUBLIC "-//W3C//DTD SVG 1.1//EN" "http://www.w3.org/Graphics/SVG/1.1/DTD/svg11.dtd">
<svg version="1.1" id="&#x421;&#x43B;&#x43E;&#x439;_2"
	 xmlns="http://www.w3.org/2000/svg" xmlns:xlink="http://www.w3.org/1999/xlink" x="0px" y="0px" viewBox="0 0 25 24.156"
	 style="enable-background:new 0 0 25 24.156;" xml:space="preserve">
<image style="display:none;overflow:visible;" width="81" height="65" xlink:href="&#x411;&#x435;&#x437;-&#x438;&#x43C;&#x435;&#x43D;&#x438;-1.png"  transform="matrix(1 0 0 1 -25.1468 -22.2288)">
</image>
<g>
	<g>
		<path style="fill:#FFFFFF;" d="M10.344,21.844c-0.148,0-0.291-0.066-0.387-0.183l-3.374-4.118l-4.12-2.064
			c-0.159-0.08-0.263-0.237-0.275-0.415s0.072-0.347,0.219-0.447L21.063,1.992c0.166-0.111,0.382-0.115,0.549-0.008
			c0.168,0.107,0.257,0.303,0.226,0.5l-3,18.938c-0.024,0.154-0.12,0.289-0.258,0.362c-0.137,0.074-0.304,0.079-0.443,0.015
			l-6.511-2.966l-0.804,2.656c-0.054,0.177-0.2,0.31-0.381,0.346C10.409,21.841,10.376,21.844,10.344,21.844z M11.313,17.641
			c0.07,0,0.142,0.015,0.207,0.045l6.434,2.931l2.717-17.15l-16.995,11.5l3.452,1.729c0.063,0.032,0.118,0.076,0.163,0.13
			l2.848,3.476l0.697-2.306c0.042-0.138,0.141-0.251,0.272-0.311C11.172,17.655,11.242,17.641,11.313,17.641z"/>
	</g>
	<g>
		<path style="fill:#FFFFFF;" d="M11.234,18.406c-0.073,0-0.146-0.021-0.211-0.065c-0.171-0.116-0.216-0.35-0.1-0.521l9.029-13.284
			L7.168,17.407c-0.146,0.147-0.383,0.148-0.53,0.002s-0.148-0.383-0.002-0.53L20.375,3.048c0.137-0.14,0.411-0.219,0.725,0.027
			c0.285,0.223,0.38,0.53,0.234,0.763l-9.789,14.404C11.472,18.349,11.354,18.406,11.234,18.406z"/>
	</g>
</g>
</svg>
