<?xml version="1.0" encoding="iso-8859-1"?>
<!-- Generator: Adobe Illustrator 18.0.0, SVG Export Plug-In . SVG Version: 6.00 Build 0)  -->
<!DOCTYPE svg PUBLIC "-//W3C//DTD SVG 1.1//EN" "http://www.w3.org/Graphics/SVG/1.1/DTD/svg11.dtd">
<svg version="1.1" id="Capa_1" xmlns="http://www.w3.org/2000/svg" xmlns:xlink="http://www.w3.org/1999/xlink" x="0px" y="0px"
	 viewBox="0 0 50 158.74" style="enable-background:new 0 0 50 158.74;" xml:space="preserve">
<g>
	<g>
		<path style="fill:#FFFFFF;" d="M31.933,75.071c-0.511,0.226-1.058,0.379-1.634,0.448c0.587-0.352,1.038-0.909,1.25-1.573
			c-0.551,0.326-1.16,0.563-1.808,0.691c-0.519-0.553-1.257-0.898-2.076-0.898c-1.571,0-2.844,1.274-2.844,2.844
			c0,0.223,0.025,0.44,0.073,0.648c-2.364-0.119-4.46-1.251-5.863-2.972c-0.245,0.419-0.385,0.908-0.385,1.429
			c0,0.987,0.503,1.858,1.265,2.367c-0.466-0.015-0.904-0.143-1.289-0.357v0.036c0,1.377,0.981,2.528,2.282,2.789
			c-0.238,0.064-0.489,0.1-0.75,0.1c-0.184,0-0.361-0.018-0.535-0.053c0.362,1.131,1.412,1.953,2.657,1.976
			c-0.973,0.763-2.2,1.216-3.533,1.216c-0.23,0-0.456-0.014-0.679-0.039c1.259,0.809,2.754,1.28,4.36,1.28
			c5.233,0,8.093-4.334,8.093-8.093l-0.009-0.368C31.07,76.142,31.553,75.641,31.933,75.071z"/>
	</g>
</g>
</svg>
