<?xml version="1.0" encoding="iso-8859-1"?>
<!-- Generator: Adobe Illustrator 18.0.0, SVG Export Plug-In . SVG Version: 6.00 Build 0)  -->
<!DOCTYPE svg PUBLIC "-//W3C//DTD SVG 1.1//EN" "http://www.w3.org/Graphics/SVG/1.1/DTD/svg11.dtd">
<svg version="1.1" id="&#x421;&#x43B;&#x43E;&#x439;_1"
	 xmlns="http://www.w3.org/2000/svg" xmlns:xlink="http://www.w3.org/1999/xlink" x="0px" y="0px" viewBox="0 0 86.833 31.333"
	 style="enable-background:new 0 0 86.833 31.333;" xml:space="preserve">
<g>
	<polygon style="fill:#09c5fb;" points="11.176,8.369 8.421,8.369 9.063,10.867 11.792,10.867 	"/>
	<rect x="20.799" y="8.369" style="fill:#09c5fb;" width="2.796" height="14.596"/>
	<polygon style="fill:#09c5fb;" points="33.419,17.021 33.379,17.021 29.489,8.369 26.43,8.369 26.43,22.965 28.983,22.965 
		28.983,13.544 29.023,13.544 33.298,22.965 35.972,22.965 35.972,8.369 33.419,8.369 	"/>
	<polygon style="fill:#09c5fb;" points="47.114,8.369 37.795,8.369 37.795,10.835 41.056,10.835 41.056,22.965 43.852,22.965 
		43.852,10.835 47.114,10.835 	"/>
	<path style="fill:#09c5fb;" d="M50.659,8.369l-3.626,14.596h2.694l0.79-3.073h3.869l0.709,3.073h2.674L54.245,8.369H50.659z
		 M51.024,17.426l1.378-5.903h0.04l1.357,5.903H51.024z"/>
	<path style="fill:#09c5fb;" d="M63.665,10.633c1.013,0,1.702,0.606,1.702,2.486h2.796c-0.101-3.315-1.641-4.953-4.497-4.953
		c-2.715,0-4.619,1.294-4.619,4.892v5.216c0,3.598,1.904,4.892,4.619,4.892c1.053,0,1.864-0.566,2.613-1.415l0.425,1.213h1.459
		v-7.48h-4.761v2.305h1.965v0.889c0,1.253-0.648,2.022-1.702,2.022c-1.114,0-1.823-0.445-1.823-2.062v-5.943
		C61.841,11.078,62.55,10.633,63.665,10.633z"/>
	<polygon style="fill:#09c5fb;" points="73.348,20.498 73.348,16.657 77.055,16.657 77.055,14.191 73.348,14.191 73.348,10.835 
		78.21,10.835 78.21,8.369 70.552,8.369 70.552,22.965 78.412,22.965 78.412,20.498 	"/>
	<polygon style="fill:#09c5fb;" points="16.418,8.369 12.691,22.965 15.349,22.965 19.077,8.369 	"/>
</g>
</svg>
