<?xml version="1.0" encoding="iso-8859-1"?>
<!-- Generator: Adobe Illustrator 18.0.0, SVG Export Plug-In . SVG Version: 6.00 Build 0)  -->
<!DOCTYPE svg PUBLIC "-//W3C//DTD SVG 1.1//EN" "http://www.w3.org/Graphics/SVG/1.1/DTD/svg11.dtd">
<svg version="1.1" id="Capa_1" xmlns="http://www.w3.org/2000/svg" xmlns:xlink="http://www.w3.org/1999/xlink" x="0px" y="0px"
	 viewBox="0 94.073 51.333 62" style="enable-background:new 0 94.073 51.333 62;" xml:space="preserve">
<path style="fill:#FFFFFF;" d="M28.903,131.824c0.529-0.648,0.793-1.384,0.793-2.208c0-1.377-1.07-2.339-2.569-2.686
	c0.645-0.168,1.13-0.354,1.455-0.8c0.325-0.447,0.488-0.948,0.488-1.501c0-0.759-0.28-1.219-0.839-1.809
	c-0.56-0.591-1.451-0.886-2.672-0.886h-5.255v11.101h5.514C27.547,133.034,28.375,132.472,28.903,131.824z M23.226,124.128h1.315
	c0.792,0,1.188,0.283,1.188,0.901c0,0.228-0.085,0.656-0.254,0.856c-0.17,0.201-0.461,0.301-0.874,0.301h-1.375V124.128
	L23.226,124.128z M23.21,130.562v-2.017h1.611c0.52,0,0.878,0.107,1.073,0.321c0.195,0.214,0.293,0.448,0.293,0.704
	c0,0.255-0.101,0.484-0.301,0.687s-0.517,0.305-0.946,0.305H23.21z"/>
</svg>
